<?xml version="1.0" encoding="utf-8"?>
<!-- Uploaded to: SVG Repo, www.svgrepo.com, Generator: SVG Repo Mixer Tools -->
<svg fill="#000000" height="800px" width="800px" version="1.1" id="Layer_1" xmlns="http://www.w3.org/2000/svg" xmlns:xlink="http://www.w3.org/1999/xlink" 
	 viewBox="0 0 313 256" xml:space="preserve">
<path d="M236.7,46.3c11.2,0.8,21.3-7.5,22.2-19.1c0.8-11.2-7.5-21.3-19.1-22.2c-11.2-0.8-21.3,7.5-22.2,19.1
	C216.8,35.4,225.4,45.5,236.7,46.3"/>
<path d="M219.1,54.7c3.9-3,8.9-4.5,14.4-4.3c6.9,0.6,13,4.9,16.3,10l20.7,41.1l28.2,19.7c2.4,2,3.9,4.9,3.7,8.1
	c-0.2,5.1-4.9,8.9-10,8.3c-1.4,0-3-0.6-4.3-1.4l-30.3-20.7c-0.8-0.8-1.8-1.8-2.4-3l-7.9-15.4l-9.3,41l36.6,43.3
	c0.8,1.4,1.4,3,1.8,4.3l9.8,52.2c0,1.2,0,2,0,3c-0.6,7.9-7.3,13.2-15,13c-6.3-0.6-11-5.1-12.6-11l-9.3-48.6l-29.7-33.1L213,193
	c-0.2,1.4-2.4,4.5-3,5.7l-28.4,48.2c-3,4.3-7.5,7.3-13,6.7c-7.9-0.6-13.6-7.3-13-15c0.2-2.4,1.2-4.3,2-6.1l26.6-44.3l22.1-97.9
	L192,102l-7.9,34.8c-0.8,4.3-5.1,8.1-9.8,7.9c-5.1-0.2-8.9-4.9-8.7-10c0-0.2,0-0.8,0.2-1.2l8.9-40.6c0.6-1.8,1.4-3.2,3-4.3
	L219.1,54.7z"/>
<path d="M93.6,45.3c11.2,0.8,21.3-7.5,22.2-19.1C116.6,15,108.4,4.9,96.8,4c-11.2-0.8-21.3,7.5-22.2,19.1
	C73.7,34.5,82.4,44.5,93.6,45.3"/>
<path d="M76.1,53.8c3.9-3,8.9-4.5,14.4-4.3c6.9,0.6,13,4.9,16.3,10l20.7,41.1l28.2,19.7c2.4,2,3.9,4.9,3.7,8.1
	c-0.2,5.1-4.9,8.9-10,8.3c-1.4,0-3-0.6-4.3-1.4l-30.3-20.7c-0.8-0.8-1.8-1.8-2.4-3l-7.9-15.4l-9.3,41l36.6,43.3
	c0.8,1.4,1.4,3,1.8,4.3l9.8,52.2c0,1.2,0,2,0,3c-0.6,7.9-7.3,13.2-15,13c-6.3-0.6-11-5.1-12.6-11l-9.3-48.6l-29.7-33.1L70,192
	c-0.2,1.4-2.4,4.5-3,5.7l-28.4,48.2c-3,4.3-7.5,7.3-13,6.7c-7.9-0.6-13.6-7.3-13-15c0.2-2.4,1.2-4.3,2-6.1l26.6-44.3l22.1-97.9
	L48.9,101L41,135.9c-0.8,4.3-5.1,8.1-9.8,7.9c-5.1-0.2-8.9-4.9-8.7-10c0-0.2,0-0.8,0.2-1.2L31.6,92c0.6-1.8,1.4-3.2,3-4.3L76.1,53.8
	z"/>
</svg>